<svg width="100" height="100" viewBox="0 0 100 100" fill="none" xmlns="http://www.w3.org/2000/svg">
<rect width="100" height="100" rx="15" fill="#1F1F1F"/>
<path d="M23.7842 22.9795L24.9268 23.043C30.9359 23.043 34.7021 23.4027 36.2256 24.1221C39.5264 24.5876 42.5309 25.18 45.2393 25.8994C45.8317 26.238 47.0166 26.6188 48.7939 27.042C49.3441 27.2536 49.8307 27.7614 50.2539 28.5654C51.7773 29.835 52.5391 31.6123 52.5391 33.8975L51.333 39.3564C50.8675 40.5413 49.6403 42.6361 47.6514 45.6406C47.6514 46.5293 44.541 47.9681 38.3203 49.957C38.0664 50.2956 36.9661 50.5495 35.0195 50.7188C34.3424 50.9303 32.1631 51.2266 28.4814 51.6074V59.0342L28.3545 65.1914C30.6396 65.1914 32.8613 65.6569 35.0195 66.5879V66.7783H35.083L35.0195 66.8418V67.54C35.0195 67.667 35.083 67.8363 35.21 68.0479L34.8926 68.6826V69.3174C34.8926 69.7829 34.5117 70.0156 33.75 70.0156H31.084V70.1426C31.084 70.3542 31.5706 70.5023 32.5439 70.5869V70.9043L31.7822 71.0312C29.9202 70.5234 27.0215 70.2695 23.0859 70.2695C22.7474 69.804 22.5358 69.5713 22.4512 69.5713L20.7373 70.0156C20.7373 70.1849 20.9701 70.3118 21.4355 70.3965V70.46C21.4355 70.5869 21.2028 70.6927 20.7373 70.7773C20.3141 70.7773 20.1025 69.4232 20.1025 66.7148L19.8486 65.5723C19.8486 65.1491 20.0602 64.9375 20.4834 64.9375L22.7051 65.1914H23.0859C23.5514 65.1914 23.7842 62.1234 23.7842 55.9873L23.9111 52.9404C23.6572 52.9404 23.5303 52.5384 23.5303 51.7344L23.4033 49.8301V46.9736C23.4033 46.3389 23.361 45.6829 23.2764 45.0059L23.4033 44.5615L23.1494 44.3076V44.0537L23.5303 43.6729V43.165L23.2764 42.8477C23.488 39.9701 23.5938 37.7907 23.5938 36.3096V36.1826C23.3822 35.8864 23.2764 35.3574 23.2764 34.5957V33.7705L23.6572 30.0254V29.9619C22.7262 29.8773 21.5837 29.835 20.2295 29.835C19.7217 29.835 19.3831 29.1367 19.2139 27.7402V27.6768C19.2139 27.4229 19.3831 26.915 19.7217 26.1533L19.5947 25.2646C19.5947 24.8415 19.9333 24.6087 20.6104 24.5664H20.8008V24.5029L20.4834 23.8682V23.7412C20.5257 23.3604 21.626 23.1064 23.7842 22.9795ZM25.9424 23.8682L23.9746 23.9951V24.1221C23.9746 24.249 25.3076 24.376 27.9736 24.5029L29.8145 24.376C30.026 24.2913 30.1318 24.2279 30.1318 24.1855V23.9951L28.7988 23.8682H25.9424ZM31.084 24.1855L31.2744 24.3125H32.417L32.6709 24.1855C32.6709 24.0163 32.3535 23.9105 31.7188 23.8682C31.2956 23.9105 31.084 24.0163 31.084 24.1855ZM40.542 25.4551L40.3516 25.582H40.6689L40.542 25.4551ZM40.3516 26.7246L40.2881 26.7881V26.8516C40.542 26.9785 40.8171 27.042 41.1133 27.042H41.1768V26.9785C41.1768 26.8092 40.9017 26.7246 40.3516 26.7246ZM23.5938 27.1689V27.2959L23.9746 27.3594H24.165C24.6729 27.2747 24.9268 27.1689 24.9268 27.042L24.7998 26.8516H24.292C23.9111 26.8516 23.6784 26.9574 23.5938 27.1689ZM26.7041 26.9785H26.5137V27.042H26.7041V26.9785ZM27.9736 27.4229H27.6562V27.5498C27.6562 27.973 27.9736 28.1846 28.6084 28.1846L30.3223 27.9941V27.9307C30.3223 27.6344 29.5394 27.4652 27.9736 27.4229ZM43.208 27.6133L43.1445 27.6768V27.7402C43.8216 28.2904 44.3083 28.5654 44.6045 28.5654V28.3115C44.6045 28.0153 44.139 27.7826 43.208 27.6133ZM25.3076 27.7402L25.1172 27.9307V27.9941C25.3711 28.375 25.752 28.5654 26.2598 28.5654H26.7676L27.085 28.1846V28.0576C27.085 27.9307 26.7253 27.8249 26.0059 27.7402H25.3076ZM40.7959 28.1846H40.6689V28.375C40.6689 28.5866 40.8171 28.6924 41.1133 28.6924H41.1768V28.3115L40.7959 28.1846ZM24.165 28.4385L23.9746 28.6924C23.9746 28.7347 24.165 28.7982 24.5459 28.8828C24.8421 28.8405 24.9902 28.777 24.9902 28.6924L24.8633 28.4385H24.165ZM27.8467 29.3906V29.835V30.0254V30.2793L27.7197 33.4531C27.7197 35.7806 28.0794 39.2295 28.7988 43.7998L28.9893 46.9102C30.2588 46.9102 32.5016 46.5293 35.7178 45.7676C37.0296 45.7676 38.7435 45.027 40.8594 43.5459C42.3828 42.7842 43.6947 41.8532 44.7949 40.7529C45.9798 39.0179 46.5723 37.4098 46.5723 35.9287C46.6992 35.9287 46.7627 35.6113 46.7627 34.9766V34.5322C46.7627 34.0244 45.3451 32.9242 42.5098 31.2314C38.5319 30.0042 35.9294 29.1579 34.7021 28.6924L33.3691 28.5654C30.1107 28.5654 28.2699 28.8405 27.8467 29.3906ZM26.5137 29.3271H26.3867V29.835H26.5137L26.5771 29.6445V29.5176L26.5137 29.3271ZM44.7949 30.1523H44.7314V30.2793C45.07 30.7448 45.472 30.9775 45.9375 30.9775V30.5967C45.472 30.3005 45.0911 30.1523 44.7949 30.1523ZM48.1592 30.1523L47.9688 30.2793V30.4062C48.0957 30.6178 48.2438 30.7236 48.4131 30.7236L48.54 30.5967V30.5332L48.2227 30.1523H48.1592ZM45.9375 32.1836H45.5566V32.374C45.599 32.5433 45.8105 32.6279 46.1914 32.6279H46.5088L46.5723 32.5645H46.6992C46.6992 32.3105 46.4453 32.1836 45.9375 32.1836ZM47.7783 33.4531V33.707L48.1592 33.9609L48.2861 33.834C48.1592 33.5801 47.9899 33.4531 47.7783 33.4531ZM51.6504 33.834L51.5234 33.9609C51.5658 34.2572 51.6715 34.4053 51.8408 34.4053H51.9678L52.0947 33.9609L51.8408 33.834H51.6504ZM50.127 35.5479L49.9365 35.6748V35.8018L50.127 35.9922H50.2539V35.6748L50.127 35.5479ZM45.7471 41.959L45.8105 42.0859C46.4453 41.5781 46.7627 41.1338 46.7627 40.7529H46.5088C46.001 41.2607 45.7471 41.6628 45.7471 41.959ZM26.5137 40.8164L26.3867 41.0068V41.1973H26.5137L26.7041 41.0068V40.8164H26.5137ZM40.9863 44.752L41.1133 44.8789C41.2826 44.8366 41.4307 44.6673 41.5576 44.3711V44.1807H41.3672C41.1133 44.3076 40.9863 44.498 40.9863 44.752ZM46.4453 44.6885L46.3184 44.8789V44.9424L46.4453 45.1328H46.5088L46.7627 44.8789L46.5723 44.6885H46.4453ZM36.7969 46.7832V46.9736H36.9873C38.2145 46.762 38.8281 46.5716 38.8281 46.4023V46.2754H38.3838C37.4528 46.3177 36.9238 46.487 36.7969 46.7832ZM43.0811 47.1641V47.2275H43.3984C43.9486 47.2275 44.6257 46.9948 45.4297 46.5293V46.2754H45.1123C43.7581 46.6562 43.0811 46.9525 43.0811 47.1641ZM40.8594 47.5449L40.542 47.8623H40.6689C40.9652 47.8623 41.1344 47.7777 41.1768 47.6084V47.5449H40.8594ZM37.9395 48.3701L37.8125 48.5605L38.3203 48.751H38.4473L38.5742 48.5605L38.4473 48.3701H37.9395ZM32.8613 49.3223V49.4492H33.1787L34.5752 49.0049C36.0563 48.9626 36.8392 48.8356 36.9238 48.624V48.5605H36.2891C34.6387 48.5605 33.4961 48.8145 32.8613 49.3223ZM29.4336 49.0049L29.2432 49.1953C29.2432 49.3646 29.5182 49.4492 30.0684 49.4492C30.4915 49.4069 30.7031 49.3223 30.7031 49.1953L30.5127 49.0049H29.4336ZM25.9424 59.9229C25.9424 60.8538 26.0059 61.3193 26.1328 61.3193H26.2598V60.748V58.5898L26.1328 58.4629C26.0059 58.4629 25.9424 58.9495 25.9424 59.9229ZM26.2598 62.3984L26.1328 62.2715C26.0059 62.5254 25.9424 62.7793 25.9424 63.0332V63.2236H26.1328L26.2598 63.0967V62.3984ZM22.1973 66.3975L22.0703 66.5244C22.1126 66.6937 22.2607 66.7783 22.5146 66.7783C22.8109 66.736 22.959 66.6514 22.959 66.5244V66.3975H22.1973ZM28.9258 67.9209H28.1641V68.0479L29.1162 68.1748H29.9414V68.0479L28.9258 67.9209ZM29.6875 68.5557H29.1797V68.7461H29.4336L29.6875 68.6826V68.5557ZM31.9727 68.6826L31.5283 68.7461V68.873L31.6553 69H32.9883V68.873L31.9727 68.6826ZM30.7666 69.5713H30.5127V69.7617H30.7666V69.5713ZM54.9512 22.9795L56.0938 23.043C62.1029 23.043 65.8691 23.4027 67.3926 24.1221C70.6934 24.5876 73.6979 25.18 76.4062 25.8994C76.9987 26.238 78.1836 26.6188 79.9609 27.042C80.5111 27.2536 80.9977 27.7614 81.4209 28.5654C82.9443 29.835 83.7061 31.6123 83.7061 33.8975L82.5 39.3564C82.0345 40.5413 80.8073 42.6361 78.8184 45.6406C78.8184 46.5293 75.708 47.9681 69.4873 49.957C69.2334 50.2956 68.1331 50.5495 66.1865 50.7188C65.5094 50.9303 63.3301 51.2266 59.6484 51.6074V59.0342L59.5215 65.1914C61.8066 65.1914 64.0283 65.6569 66.1865 66.5879V66.7783H66.25L66.1865 66.8418V67.54C66.1865 67.667 66.25 67.8363 66.377 68.0479L66.0596 68.6826V69.3174C66.0596 69.7829 65.6787 70.0156 64.917 70.0156H62.251V70.1426C62.251 70.3542 62.7376 70.5023 63.7109 70.5869V70.9043L62.9492 71.0312C61.0872 70.5234 58.1885 70.2695 54.2529 70.2695C53.9144 69.804 53.7028 69.5713 53.6182 69.5713L51.9043 70.0156C51.9043 70.1849 52.137 70.3118 52.6025 70.3965V70.46C52.6025 70.5869 52.3698 70.6927 51.9043 70.7773C51.4811 70.7773 51.2695 69.4232 51.2695 66.7148L51.0156 65.5723C51.0156 65.1491 51.2272 64.9375 51.6504 64.9375L53.8721 65.1914H54.2529C54.7184 65.1914 54.9512 62.1234 54.9512 55.9873L55.0781 52.9404C54.8242 52.9404 54.6973 52.5384 54.6973 51.7344L54.5703 49.8301V46.9736C54.5703 46.3389 54.528 45.6829 54.4434 45.0059L54.5703 44.5615L54.3164 44.3076V44.0537L54.6973 43.6729V43.165L54.4434 42.8477C54.6549 39.9701 54.7607 37.7907 54.7607 36.3096V36.1826C54.5492 35.8864 54.4434 35.3574 54.4434 34.5957V33.7705L54.8242 30.0254V29.9619C53.8932 29.8773 52.7507 29.835 51.3965 29.835C50.8887 29.835 50.5501 29.1367 50.3809 27.7402V27.6768C50.3809 27.4229 50.5501 26.915 50.8887 26.1533L50.7617 25.2646C50.7617 24.8415 51.1003 24.6087 51.7773 24.5664H51.9678V24.5029L51.6504 23.8682V23.7412C51.6927 23.3604 52.793 23.1064 54.9512 22.9795ZM57.1094 23.8682L55.1416 23.9951V24.1221C55.1416 24.249 56.4746 24.376 59.1406 24.5029L60.9814 24.376C61.193 24.2913 61.2988 24.2279 61.2988 24.1855V23.9951L59.9658 23.8682H57.1094ZM62.251 24.1855L62.4414 24.3125H63.584L63.8379 24.1855C63.8379 24.0163 63.5205 23.9105 62.8857 23.8682C62.4626 23.9105 62.251 24.0163 62.251 24.1855ZM71.709 25.4551L71.5186 25.582H71.8359L71.709 25.4551ZM71.5186 26.7246L71.4551 26.7881V26.8516C71.709 26.9785 71.984 27.042 72.2803 27.042H72.3438V26.9785C72.3438 26.8092 72.0687 26.7246 71.5186 26.7246ZM54.7607 27.1689V27.2959L55.1416 27.3594H55.332C55.8398 27.2747 56.0938 27.1689 56.0938 27.042L55.9668 26.8516H55.459C55.0781 26.8516 54.8454 26.9574 54.7607 27.1689ZM57.8711 26.9785H57.6807V27.042H57.8711V26.9785ZM59.1406 27.4229H58.8232V27.5498C58.8232 27.973 59.1406 28.1846 59.7754 28.1846L61.4893 27.9941V27.9307C61.4893 27.6344 60.7064 27.4652 59.1406 27.4229ZM74.375 27.6133L74.3115 27.6768V27.7402C74.9886 28.2904 75.4753 28.5654 75.7715 28.5654V28.3115C75.7715 28.0153 75.306 27.7826 74.375 27.6133ZM56.4746 27.7402L56.2842 27.9307V27.9941C56.5381 28.375 56.9189 28.5654 57.4268 28.5654H57.9346L58.252 28.1846V28.0576C58.252 27.9307 57.8923 27.8249 57.1729 27.7402H56.4746ZM71.9629 28.1846H71.8359V28.375C71.8359 28.5866 71.984 28.6924 72.2803 28.6924H72.3438V28.3115L71.9629 28.1846ZM55.332 28.4385L55.1416 28.6924C55.1416 28.7347 55.332 28.7982 55.7129 28.8828C56.0091 28.8405 56.1572 28.777 56.1572 28.6924L56.0303 28.4385H55.332ZM59.0137 29.3906V29.835V30.0254V30.2793L58.8867 33.4531C58.8867 35.7806 59.2464 39.2295 59.9658 43.7998L60.1562 46.9102C61.4258 46.9102 63.6686 46.5293 66.8848 45.7676C68.1966 45.7676 69.9105 45.027 72.0264 43.5459C73.5498 42.7842 74.8617 41.8532 75.9619 40.7529C77.1468 39.0179 77.7393 37.4098 77.7393 35.9287C77.8662 35.9287 77.9297 35.6113 77.9297 34.9766V34.5322C77.9297 34.0244 76.512 32.9242 73.6768 31.2314C69.6989 30.0042 67.0964 29.1579 65.8691 28.6924L64.5361 28.5654C61.2777 28.5654 59.4368 28.8405 59.0137 29.3906ZM57.6807 29.3271H57.5537V29.835H57.6807L57.7441 29.6445V29.5176L57.6807 29.3271ZM75.9619 30.1523H75.8984V30.2793C76.237 30.7448 76.639 30.9775 77.1045 30.9775V30.5967C76.639 30.3005 76.2581 30.1523 75.9619 30.1523ZM79.3262 30.1523L79.1357 30.2793V30.4062C79.2627 30.6178 79.4108 30.7236 79.5801 30.7236L79.707 30.5967V30.5332L79.3896 30.1523H79.3262ZM77.1045 32.1836H76.7236V32.374C76.766 32.5433 76.9775 32.6279 77.3584 32.6279H77.6758L77.7393 32.5645H77.8662C77.8662 32.3105 77.6123 32.1836 77.1045 32.1836ZM78.9453 33.4531V33.707L79.3262 33.9609L79.4531 33.834C79.3262 33.5801 79.1569 33.4531 78.9453 33.4531ZM82.8174 33.834L82.6904 33.9609C82.7327 34.2572 82.8385 34.4053 83.0078 34.4053H83.1348L83.2617 33.9609L83.0078 33.834H82.8174ZM81.2939 35.5479L81.1035 35.6748V35.8018L81.2939 35.9922H81.4209V35.6748L81.2939 35.5479ZM76.9141 41.959L76.9775 42.0859C77.6123 41.5781 77.9297 41.1338 77.9297 40.7529H77.6758C77.168 41.2607 76.9141 41.6628 76.9141 41.959ZM57.6807 40.8164L57.5537 41.0068V41.1973H57.6807L57.8711 41.0068V40.8164H57.6807ZM72.1533 44.752L72.2803 44.8789C72.4495 44.8366 72.5977 44.6673 72.7246 44.3711V44.1807H72.5342C72.2803 44.3076 72.1533 44.498 72.1533 44.752ZM77.6123 44.6885L77.4854 44.8789V44.9424L77.6123 45.1328H77.6758L77.9297 44.8789L77.7393 44.6885H77.6123ZM67.9639 46.7832V46.9736H68.1543C69.3815 46.762 69.9951 46.5716 69.9951 46.4023V46.2754H69.5508C68.6198 46.3177 68.0908 46.487 67.9639 46.7832ZM74.248 47.1641V47.2275H74.5654C75.1156 47.2275 75.7926 46.9948 76.5967 46.5293V46.2754H76.2793C74.9251 46.6562 74.248 46.9525 74.248 47.1641ZM72.0264 47.5449L71.709 47.8623H71.8359C72.1322 47.8623 72.3014 47.7777 72.3438 47.6084V47.5449H72.0264ZM69.1064 48.3701L68.9795 48.5605L69.4873 48.751H69.6143L69.7412 48.5605L69.6143 48.3701H69.1064ZM64.0283 49.3223V49.4492H64.3457L65.7422 49.0049C67.2233 48.9626 68.0062 48.8356 68.0908 48.624V48.5605H67.4561C65.8057 48.5605 64.6631 48.8145 64.0283 49.3223ZM60.6006 49.0049L60.4102 49.1953C60.4102 49.3646 60.6852 49.4492 61.2354 49.4492C61.6585 49.4069 61.8701 49.3223 61.8701 49.1953L61.6797 49.0049H60.6006ZM57.1094 59.9229C57.1094 60.8538 57.1729 61.3193 57.2998 61.3193H57.4268V60.748V58.5898L57.2998 58.4629C57.1729 58.4629 57.1094 58.9495 57.1094 59.9229ZM57.4268 62.3984L57.2998 62.2715C57.1729 62.5254 57.1094 62.7793 57.1094 63.0332V63.2236H57.2998L57.4268 63.0967V62.3984ZM53.3643 66.3975L53.2373 66.5244C53.2796 66.6937 53.4277 66.7783 53.6816 66.7783C53.9779 66.736 54.126 66.6514 54.126 66.5244V66.3975H53.3643ZM60.0928 67.9209H59.3311V68.0479L60.2832 68.1748H61.1084V68.0479L60.0928 67.9209ZM60.8545 68.5557H60.3467V68.7461H60.6006L60.8545 68.6826V68.5557ZM63.1396 68.6826L62.6953 68.7461V68.873L62.8223 69H64.1553V68.873L63.1396 68.6826ZM61.9336 69.5713H61.6797V69.7617H61.9336V69.5713Z" fill="white"/>
</svg>
